<svg width="39" height="36" viewBox="0 0 39 36" fill="none" xmlns="http://www.w3.org/2000/svg">
<path d="M11.625 0.5H27.375C33.375 0.5 38.25 5.05 38.25 10.65V25.35C38.25 28.0419 37.1042 30.6236 35.0648 32.5271C33.0253 34.4306 30.2592 35.5 27.375 35.5H11.625C5.625 35.5 0.75 30.95 0.75 25.35V10.65C0.75 7.95805 1.89576 5.37636 3.93521 3.47287C5.97467 1.56937 8.74077 0.5 11.625 0.5ZM11.25 4C9.45979 4 7.7429 4.66375 6.47703 5.84523C5.21116 7.02671 4.5 8.62914 4.5 10.3V25.7C4.5 29.1825 7.51875 32 11.25 32H27.75C29.5402 32 31.2571 31.3363 32.523 30.1548C33.7888 28.9733 34.5 27.3709 34.5 25.7V10.3C34.5 6.8175 31.4812 4 27.75 4H11.25ZM29.3438 6.625C29.9654 6.625 30.5615 6.85547 31.001 7.2657C31.4406 7.67594 31.6875 8.23234 31.6875 8.8125C31.6875 9.39266 31.4406 9.94906 31.001 10.3593C30.5615 10.7695 29.9654 11 29.3438 11C28.7221 11 28.126 10.7695 27.6865 10.3593C27.2469 9.94906 27 9.39266 27 8.8125C27 8.23234 27.2469 7.67594 27.6865 7.2657C28.126 6.85547 28.7221 6.625 29.3438 6.625ZM19.5 9.25C21.9864 9.25 24.371 10.1719 26.1291 11.8128C27.8873 13.4538 28.875 15.6794 28.875 18C28.875 20.3206 27.8873 22.5462 26.1291 24.1872C24.371 25.8281 21.9864 26.75 19.5 26.75C17.0136 26.75 14.629 25.8281 12.8709 24.1872C11.1127 22.5462 10.125 20.3206 10.125 18C10.125 15.6794 11.1127 13.4538 12.8709 11.8128C14.629 10.1719 17.0136 9.25 19.5 9.25ZM19.5 12.75C18.0082 12.75 16.5774 13.3031 15.5225 14.2877C14.4676 15.2723 13.875 16.6076 13.875 18C13.875 19.3924 14.4676 20.7277 15.5225 21.7123C16.5774 22.6969 18.0082 23.25 19.5 23.25C20.9918 23.25 22.4226 22.6969 23.4775 21.7123C24.5324 20.7277 25.125 19.3924 25.125 18C25.125 16.6076 24.5324 15.2723 23.4775 14.2877C22.4226 13.3031 20.9918 12.75 19.5 12.75Z" fill="white"/>
</svg>
