<svg width="40" height="30" viewBox="0 0 40 30" fill="none" xmlns="http://www.w3.org/2000/svg">
<path d="M39.1767 3.5C37.765 4.1125 36.2433 4.515 34.6667 4.7075C36.28 3.78 37.5267 2.31 38.1133 0.5425C36.5917 1.4175 34.905 2.03 33.1267 2.38C31.6783 0.875 29.6433 0 27.3333 0C23.025 0 19.505 3.36 19.505 7.5075C19.505 8.1025 19.5783 8.68 19.7067 9.2225C13.18 8.9075 7.36833 5.915 3.5 1.3825C2.82167 2.485 2.43667 3.78 2.43667 5.145C2.43667 7.7525 3.81167 10.0625 5.93833 11.375C4.63667 11.375 3.42667 11.025 2.36333 10.5V10.5525C2.36333 14.1925 5.07667 17.2375 8.67 17.92C7.51633 18.2214 6.30517 18.2633 5.13167 18.0425C5.62961 19.5343 6.60482 20.8397 7.9202 21.7751C9.23558 22.7105 10.825 23.229 12.465 23.2575C9.68499 25.3583 6.23899 26.4938 2.69333 26.4775C2.07 26.4775 1.44667 26.4425 0.823334 26.3725C4.30667 28.5075 8.45 29.75 12.8867 29.75C27.3333 29.75 35.2717 18.305 35.2717 8.3825C35.2717 8.05 35.2717 7.735 35.2533 7.4025C36.7933 6.3525 38.1133 5.0225 39.1767 3.5Z" fill="white"/>
</svg>
